<svg xmlns="http://www.w3.org/2000/svg" fill="none" viewBox="0 0 100 100" height="100" width="100">
<path fill="url(#paint0_linear_197_6)" d="M78.802 7C69.7657 7 62.3356 14.0045 61.6534 22.8675C61.6213 23.306 61.6042 23.7508 61.6042 24.1978C61.6042 37.2935 76.691 52.4232 76.8429 52.575C77.3498 53.0777 78.0278 53.36 78.7528 53.3707C78.7699 53.3728 78.7849 53.3728 78.802 53.3728C79.5463 53.3728 80.2414 53.0883 80.7611 52.5729C80.913 52.4232 95.9999 37.2914 95.9999 24.1978C95.9999 14.7145 88.2853 7 78.802 7ZM78.802 31.7862C74.6164 31.7862 71.2115 28.3813 71.2115 24.1978C71.2115 20.0123 74.6164 16.6074 78.802 16.6074C82.9876 16.6074 86.3925 20.0123 86.3925 24.1978C86.3925 28.3813 82.9876 31.7862 78.802 31.7862ZM24.2848 26.8499C25.8888 23.7979 27.7154 21.2784 29.7044 19.3386C20.6232 21.9864 12.9728 28.0156 8.21191 35.9696H20.6916C21.6412 32.6652 22.8454 29.594 24.2848 26.8499Z"></path>
<path fill="url(#paint1_linear_197_6)" d="M58.3963 24.1973C58.3963 23.1258 58.4797 22.0735 58.6401 21.0448C58.2668 20.8408 57.8896 20.644 57.5087 20.4545C57.1194 21.203 56.204 21.5217 55.4255 21.1688C53.8022 20.4309 52.1404 19.8171 50.4465 19.3252C52.4398 21.2693 54.2706 23.7909 55.8768 26.8494C57.3269 29.6148 58.5396 32.7118 59.4935 36.0461C60.1394 36.2514 60.6078 36.8567 60.6078 37.5732C60.6078 37.9945 60.4431 38.3774 60.1757 38.664C61.2665 43.2559 61.8889 48.2307 61.9958 53.3723H70.9188C71.8042 53.3723 72.5228 54.0909 72.5228 54.9764C72.5228 55.8618 71.8042 56.5804 70.9188 56.5804H61.9958C61.8932 61.5317 61.3114 66.3268 60.2955 70.7754H73.6949C75.376 67.1909 76.5052 63.2791 76.9672 59.1427C77.0635 58.2829 77.8249 57.6562 78.6804 57.7204C78.7082 57.3418 78.7296 56.9611 78.7467 56.5783C77.1704 56.5655 75.6946 55.9538 74.5825 54.8523C73.9216 54.1957 58.3963 38.634 58.3963 24.1973ZM55.8768 83.1012C54.2685 86.1639 52.4377 88.6855 50.4422 90.6296C59.5277 88.0032 67.2166 81.9997 71.9903 73.9836H59.4699C58.5203 77.288 57.3162 80.3571 55.8768 83.1012ZM56.127 73.9836H24.0348C24.8796 76.7383 25.9148 79.3006 27.1275 81.6105C30.6757 88.3711 35.2762 92.0926 40.0799 92.0926C44.8857 92.0926 49.4862 88.3711 53.0365 81.6105C54.2492 79.3006 55.2822 76.7383 56.127 73.9836ZM24.285 83.1012C22.8456 80.3571 21.6415 77.288 20.6919 73.9836H8.21218C12.9731 81.9355 20.6235 87.9669 29.7047 90.6147C27.7156 88.6727 25.8891 86.1553 24.285 83.1012ZM18.166 56.5804H3C3.20702 61.4982 4.39676 66.3248 6.49903 70.7754H19.8663C18.8504 66.3268 18.2687 61.5317 18.166 56.5804Z"></path>
<path fill="url(#paint2_linear_197_6)" d="M23.1579 70.7768H57.0039C58.069 66.3667 58.6786 61.563 58.7877 56.5818H21.3742C21.4832 61.563 22.0928 66.3667 23.1579 70.7768ZM57.0039 39.1786H23.1579C22.0928 43.5888 21.4832 48.3903 21.3742 53.3736H58.7877C58.6786 48.3903 58.069 43.5888 57.0039 39.1786ZM19.8663 39.1786H6.49903C4.39676 43.6293 3.20702 48.4558 3 53.3736H18.166C18.2687 48.4224 18.8504 43.6273 19.8663 39.1786ZM24.0348 35.9705H56.127C55.2822 33.2157 54.2492 30.6535 53.0365 28.3436C49.4862 21.583 44.8857 17.8594 40.0799 17.8594C35.2762 17.8594 30.6757 21.583 27.1275 28.3436C25.9148 30.6535 24.8796 33.2157 24.0348 35.9705Z"></path>
<defs>
<linearGradient gradientUnits="userSpaceOnUse" y2="53.3728" x2="52.1059" y1="7" x1="52.1059" id="paint0_linear_197_6">
<stop stop-color="#763E3E"></stop>
<stop stop-color="#5A3232" offset="1"></stop>
</linearGradient>
<linearGradient gradientUnits="userSpaceOnUse" y2="92.0926" x2="40.8733" y1="19.3252" x1="40.8733" id="paint1_linear_197_6">
<stop stop-color="#763E3E"></stop>
<stop stop-color="#5A3232" offset="1"></stop>
</linearGradient>
<linearGradient gradientUnits="userSpaceOnUse" y2="70.7768" x2="30.8938" y1="17.8594" x1="30.8938" id="paint2_linear_197_6">
<stop stop-color="#763E3E"></stop>
<stop stop-color="#5A3232" offset="1"></stop>
</linearGradient>
</defs>
</svg>
