<svg xmlns="http://www.w3.org/2000/svg" fill="none" viewBox="0 0 100 100" height="100" width="100">
<g clip-path="url(#clip0_193_11)">
<path fill="white" d="M13.3289 100H86.6573C89.4185 100 91.6569 97.7615 91.6569 95.0004V38.7607L92.2485 39.1523C92.7865 39.5238 93.3944 39.7819 94.0354 39.9108C94.6763 40.0397 95.3367 40.0368 95.9765 39.9022C96.6348 39.766 97.2588 39.4981 97.8109 39.1146C98.3631 38.7312 98.832 38.24 99.1896 37.6707L99.1996 37.654C100.664 35.2949 100.023 32.2022 97.7415 30.6195L52.7362 0.840026C51.9283 0.292607 50.9748 0 49.9989 0C49.023 0 48.0695 0.292607 47.2616 0.840026L2.23126 30.6347C-0.0455031 32.2227 -0.678505 35.3162 0.791401 37.6709C1.14499 38.2397 1.61027 38.7308 2.1591 39.1147C2.70793 39.4985 3.32891 39.7671 3.98448 39.9041C4.31749 39.9711 4.65645 40.0046 4.99606 40.0041C5.96729 40.0055 6.91655 39.7152 7.72091 39.1708L8.32915 38.7625V95.0004C8.32915 97.7615 10.5676 100 13.3289 100ZM88.3237 95.0004C88.3237 95.9208 87.5776 96.6669 86.6571 96.6669H13.3289C12.4085 96.6669 11.6624 95.9208 11.6624 95.0004V36.5593L49.993 11.2276L88.3237 36.5593V95.0004ZM5.86433 36.396C5.69171 36.5153 5.49654 36.5982 5.29077 36.6395C5.085 36.6807 4.87297 36.6796 4.66767 36.636C4.45103 36.5908 4.2459 36.5018 4.06481 36.3746C3.88372 36.2473 3.73049 36.0845 3.61448 35.896C3.36032 35.4996 3.26724 35.021 3.35427 34.5581C3.44131 34.0953 3.70189 33.6832 4.08271 33.4061L49.1147 3.60995C49.3738 3.43399 49.6798 3.33995 49.993 3.34C50.3125 3.34133 50.6242 3.43828 50.8881 3.61837L95.89 33.398C96.2738 33.6724 96.5381 34.0832 96.6286 34.5462C96.7191 35.0092 96.6289 35.4893 96.3766 35.8879C96.2578 36.0787 96.1016 36.2435 95.9174 36.3724C95.7333 36.5013 95.525 36.5916 95.305 36.6378C95.0983 36.6789 94.8854 36.6777 94.6791 36.6342C94.4729 36.5906 94.2776 36.5057 94.1051 36.3846L50.913 7.83954C50.6404 7.66155 50.322 7.56676 49.9964 7.56676C49.6709 7.56676 49.3524 7.66155 49.0799 7.83954L5.86433 36.396Z"></path>
<path fill="white" d="M36.0706 31.4496C34.1351 29.5233 31.0065 29.5233 29.0711 31.4496L19.7784 40.7422C17.8512 42.6774 17.8512 45.8065 19.7784 47.7417L34.859 62.8357L25.5829 72.1134C25.3818 72.313 25.2354 72.5609 25.158 72.8335L21.2733 86.4343C21.137 86.9103 21.1132 87.4114 21.2036 87.8982C21.294 88.385 21.4962 88.8442 21.7943 89.2396C22.0924 89.6349 22.4782 89.9556 22.9213 90.1765C23.3645 90.3974 23.8528 90.5123 24.348 90.5123C24.645 90.5116 24.9406 90.4702 25.2263 90.389L38.8271 86.501C39.0996 86.4234 39.3476 86.2771 39.5471 86.076L48.8265 76.8033L63.9104 91.8889C65.8464 93.8143 68.974 93.8143 70.91 91.8889L80.2026 82.5963C82.1298 80.6611 82.1298 77.5319 80.2026 75.5968L65.1269 60.5028L77.8877 47.742C78.5011 47.1296 78.9877 46.4022 79.3197 45.6015C79.6517 44.8008 79.8226 43.9425 79.8226 43.0757C79.8226 42.209 79.6517 41.3507 79.3197 40.55C78.9877 39.7493 78.5011 39.0219 77.8877 38.4095L73.2414 33.7631C72.6301 33.1484 71.9029 32.6611 71.1019 32.3296C70.3009 31.998 69.442 31.8287 68.5751 31.8316C67.7083 31.8287 66.8496 31.9977 66.0486 32.329C65.2476 32.6603 64.5203 33.1472 63.9088 33.7615L51.1596 46.5356L36.0706 31.4496ZM30.251 81.4095C29.2706 80.4385 28.0978 79.6835 26.808 79.193L27.8447 75.5616L33.6242 78.0381L36.1008 83.8177L32.4694 84.8544C31.9784 83.5639 31.2228 82.3904 30.251 81.4095ZM36.8688 77.1497L61.6088 52.4098L65.0602 55.8613L38.9387 81.9811L36.8688 77.1497ZM58.1591 44.2453L61.6106 40.7939L70.87 50.0533L67.4169 53.5031L58.1591 44.2453ZM59.2541 50.0533L34.5123 74.7932L29.6793 72.7233L55.8008 46.6018L59.2541 50.0533ZM22.1349 45.3869C21.5031 44.7543 21.5031 43.7296 22.1349 43.097L31.4276 33.8044C32.0601 33.1726 33.0849 33.1726 33.7174 33.8044L37.1855 37.2726L33.7174 40.7407C33.5047 40.9462 33.3505 41.2047 33.2707 41.4895C33.1909 41.7743 33.1883 42.0752 33.2631 42.3614C33.338 42.6475 33.4877 42.9086 33.6968 43.1178C33.9059 43.327 34.1669 43.4767 34.4531 43.5517C34.7393 43.6266 35.0402 43.624 35.3251 43.5441C35.6099 43.4642 35.8684 43.31 36.0739 43.0972L39.542 39.6291L42.9935 43.0838L40.687 45.3903C40.4743 45.5959 40.3201 45.8543 40.2403 46.1391C40.1605 46.4239 40.1579 46.7248 40.2328 47.011C40.3077 47.2971 40.4573 47.5582 40.6665 47.7674C40.8756 47.9766 41.1366 48.1264 41.4227 48.2013C41.7089 48.2762 42.0098 48.2736 42.2947 48.1937C42.5795 48.1139 42.838 47.9596 43.0435 47.7468L45.35 45.4403L48.8014 48.8918L37.2189 60.4744L22.1349 45.3869ZM24.5448 87.1175L25.878 82.4178C27.3923 83.0567 28.5973 84.2617 29.2362 85.776L24.5448 87.1175ZM66.2219 66.3156L63.9154 68.622C63.7027 68.8276 63.5485 69.086 63.4687 69.3708C63.3889 69.6556 63.3863 69.9566 63.4612 70.2427C63.5361 70.5288 63.6857 70.7899 63.8949 70.9991C64.104 71.2083 64.365 71.3581 64.6511 71.4331C64.9373 71.508 65.2383 71.5053 65.5231 71.4255C65.8079 71.3456 66.0664 71.1913 66.2719 70.9785L68.5784 68.6688L72.0298 72.1202L68.5617 75.5884C68.349 75.7939 68.1948 76.0523 68.115 76.3371C68.0352 76.622 68.0326 76.9229 68.1075 77.209C68.1824 77.4952 68.3321 77.7562 68.5412 77.9654C68.7503 78.1746 69.0113 78.3244 69.2974 78.3994C69.5836 78.4743 69.8846 78.4717 70.1694 78.3918C70.4542 78.3119 70.7127 78.1577 70.9182 77.9449L74.3864 74.4767L77.8527 77.9447C78.4845 78.5772 78.4845 79.602 77.8527 80.2345L68.5601 89.5273C67.9276 90.1591 66.9028 90.1591 66.2703 89.5273L51.1863 74.4434L62.7689 62.8608L66.2219 66.3156ZM68.5767 35.171C69.0053 35.1696 69.4298 35.2533 69.8257 35.4172C70.2216 35.5811 70.5811 35.822 70.8832 36.1259L75.5295 40.7722C76.8016 42.0462 76.8016 44.1096 75.5295 45.3835L73.2247 47.6968L63.9653 38.4374L66.2717 36.1309C66.5734 35.8264 66.9324 35.5848 67.3281 35.42C67.7237 35.2552 68.1481 35.1706 68.5767 35.171Z"></path>
</g>
<defs>
<clipPath id="clip0_193_11">
<rect fill="white" height="100" width="100"></rect>
</clipPath>
</defs>
</svg>
