<svg width="40" height="40" viewBox="0 0 34 34" xmlns="http://www.w3.org/2000/svg">
  <path d="M16.0919 0.968664C16.4494 0.193792 17.5506 0.193793 17.9081 0.968665L21.9851 9.80764C22.1307 10.1234 22.43 10.3409 22.7754 10.3818L32.4416 11.5279C33.289 11.6284 33.6293 12.6758 33.0028 13.2552L25.8563 19.864C25.601 20.1001 25.4867 20.452 25.5545 20.7931L27.4515 30.3404C27.6178 31.1774 26.7269 31.8247 25.9822 31.4079L17.4884 26.6534C17.185 26.4835 16.815 26.4835 16.5116 26.6534L8.01776 31.4079C7.27314 31.8247 6.38219 31.1774 6.54849 30.3404L8.44553 20.7931C8.51331 20.452 8.39899 20.1001 8.14365 19.864L0.99716 13.2551C0.37066 12.6758 0.710978 11.6284 1.55837 11.5279L11.2246 10.3818C11.57 10.3409 11.8693 10.1234 12.0149 9.80764L16.0919 0.968664Z" fill="currentColor"></path>
</svg>
