<svg xmlns="http://www.w3.org/2000/svg" fill="none" viewBox="0 0 100 100" height="100" width="100">
<path fill="url(#paint0_linear_197_16)" d="M37.154 59.2871C38.4044 57.1134 40.7752 55.5828 43.6027 54.7061C47.1149 57.7567 52.3392 57.7567 55.8515 54.7061C58.679 55.583 61.0499 57.1134 62.3003 59.2923C56.3029 68.226 43.1514 68.226 37.154 59.2871ZM89.4541 27.9361L86.004 32.3927L88.4528 37.4665L83.1507 35.5574L79.0781 39.4589L79.2545 33.8248L74.2844 31.1582L79.7007 29.5862L80.7021 24.0403L83.8718 28.6991L89.4541 27.9365V27.9361ZM72.6658 11.1425L71.9032 16.73L76.5619 19.8999L71.0161 20.9012L69.4388 26.3122L66.7722 21.3474L61.1381 21.5185L65.0393 17.4511L63.1354 12.149L68.2093 14.5976L72.6658 11.1425ZM10.0002 27.9361L15.5876 28.6988L18.7573 24.04L19.7586 29.5859L25.1696 31.1578L20.2048 33.8244L20.3762 39.4585L16.3087 35.5571L11.0013 37.4662L13.4552 32.3923L10 27.9357L10.0002 27.9361ZM26.7936 11.1425L31.2448 14.5978L36.3238 12.1491L34.4146 17.4512L38.3158 21.5187L32.6817 21.3476L30.0151 26.3124L28.4431 20.9014L22.892 19.9001L27.5559 16.7301L26.7932 11.1427L26.7936 11.1425ZM49.7297 5L51.8619 10.2192L57.4804 10.6343L53.1796 14.2711L54.5181 19.7496L49.7295 16.777L44.9358 19.7496L46.2794 14.2711L41.9735 10.6343L47.5973 10.2192L49.7295 5H49.7297ZM49.7297 40.5014C53.6778 40.5014 56.8735 43.7024 56.8735 47.6505C56.8735 51.5986 53.6778 54.7995 49.7297 54.7995C45.7816 54.7995 42.5806 51.5985 42.5806 47.6505C42.5806 43.7026 45.7816 40.5014 49.7297 40.5014ZM45.434 25.3473C48.0073 23.5418 51.4521 23.5418 54.0252 25.3473C55.4623 26.359 57.0187 26.7739 58.7671 26.6184C61.9007 26.3435 64.8836 28.0659 66.2118 30.914C66.9537 32.512 68.0897 33.6482 69.6826 34.39C72.5359 35.7181 74.2583 38.6961 73.9782 41.8296C73.8278 43.5831 74.2429 45.1344 75.2493 46.5766C77.0548 49.1498 77.0548 52.5946 75.2493 55.1679C74.2429 56.605 73.8278 58.1614 73.9782 59.9149C74.2585 63.0433 72.536 66.0263 69.6826 67.3545C68.0897 68.0963 66.9537 69.2325 66.2118 70.8253C64.8836 73.6788 61.9006 75.4012 58.7671 75.1261C57.0187 74.9705 55.4623 75.3854 54.0252 76.3972C51.4519 78.2027 48.0071 78.2027 45.434 76.3972C43.9918 75.3856 42.4405 74.9705 40.687 75.1261C37.5534 75.401 34.5705 73.6786 33.2474 70.8253C32.5055 69.2326 31.3641 68.0965 29.7715 67.3545C26.9233 66.0263 25.2009 63.0433 25.4758 59.9149C25.6314 58.1614 25.2165 56.605 24.2048 55.1679C22.3993 52.5946 22.3993 49.1498 24.2048 46.5766C25.2163 45.1344 25.6314 43.5831 25.4758 41.8296C25.2009 38.6961 26.9233 35.7181 29.7715 34.39C31.3641 33.6482 32.5055 32.512 33.2474 30.914C34.5705 28.0659 37.5534 26.3435 40.687 26.6184C42.4405 26.7741 43.9918 26.359 45.434 25.3473ZM49.7297 33.5444C59.2964 33.5444 67.0524 41.3056 67.0524 50.8722C67.0524 60.4389 59.2964 68.1949 49.7297 68.1949C40.163 68.1949 32.4019 60.4389 32.4019 50.8722C32.4019 41.3056 40.1579 33.5444 49.7297 33.5444ZM30.8403 71.0171L25.5694 90.69L35.7014 85.3774L41.8232 95.0479L46.0618 79.2245C45.3954 78.9526 44.7619 78.6063 44.1734 78.192C43.1616 77.4812 42.1085 77.2012 40.879 77.3101C36.8271 77.6681 32.9672 75.4372 31.2553 71.7538C31.1308 71.4891 30.9961 71.2402 30.8403 71.0171ZM68.6141 71.0171L73.8851 90.69L63.7531 85.3774L57.6312 95.0479L53.3927 79.2245C54.0567 78.9547 54.6895 78.6071 55.2862 78.192C56.2979 77.4812 57.3459 77.2012 58.5754 77.3101C62.6273 77.6681 66.4872 75.4372 68.1992 71.7538C68.3185 71.498 68.4571 71.2517 68.6141 71.0171Z" clip-rule="evenodd" fill-rule="evenodd"></path>
<defs>
<linearGradient gradientUnits="userSpaceOnUse" y2="95.0479" x2="49.727" y1="5" x1="49.727" id="paint0_linear_197_16">
<stop stop-color="#7D4141"></stop>
<stop stop-color="#5A3232" offset="1"></stop>
</linearGradient>
</defs>
</svg>
