<svg xmlns="http://www.w3.org/2000/svg" fill="none" viewBox="0 0 100 100" height="100" width="100">
<path fill="white" d="M79.6875 28.125V9.375C79.685 7.30376 78.8611 5.31806 77.3965 3.85347C75.9319 2.38888 73.9462 1.56498 71.875 1.5625H28.125C26.0538 1.56498 24.0681 2.38888 22.6035 3.85347C21.1389 5.31806 20.315 7.30376 20.3125 9.375V28.125C19.0697 28.1262 17.8781 28.6205 16.9993 29.4993C16.1205 30.3781 15.6262 31.5697 15.625 32.8125V54.6875C15.6262 55.9303 16.1205 57.1219 16.9993 58.0007C17.8781 58.8795 19.0697 59.3738 20.3125 59.375V90.625C20.315 92.6962 21.1389 94.6819 22.6035 96.1465C24.0681 97.6111 26.0538 98.435 28.125 98.4375H71.875C73.9462 98.435 75.9319 97.6111 77.3965 96.1465C78.8611 94.6819 79.685 92.6962 79.6875 90.625V59.375C80.9303 59.3738 82.1219 58.8795 83.0007 58.0007C83.8795 57.1219 84.3738 55.9303 84.375 54.6875V32.8125C84.3738 31.5697 83.8795 30.3781 83.0007 29.4993C82.1219 28.6205 80.9303 28.1262 79.6875 28.125ZM23.4375 9.375C23.4387 8.13218 23.933 6.94062 24.8118 6.06181C25.6906 5.183 26.8822 4.68874 28.125 4.6875H71.875C73.1178 4.68874 74.3094 5.183 75.1882 6.06181C76.067 6.94062 76.5613 8.13218 76.5625 9.375V28.125H23.4375V9.375ZM76.5625 90.625C76.5613 91.8678 76.067 93.0594 75.1882 93.9382C74.3094 94.817 73.1178 95.3113 71.875 95.3125H28.125C26.8822 95.3113 25.6906 94.817 24.8118 93.9382C23.933 93.0594 23.4387 91.8678 23.4375 90.625V82.8125H76.5625V90.625ZM76.5625 79.6875H23.4375V59.375H76.5625V79.6875ZM81.25 54.6875C81.25 55.1019 81.0854 55.4993 80.7924 55.7924C80.4993 56.0854 80.1019 56.25 79.6875 56.25H20.3125C19.8981 56.25 19.5007 56.0854 19.2076 55.7924C18.9146 55.4993 18.75 55.1019 18.75 54.6875V32.8125C18.75 32.3981 18.9146 32.0007 19.2076 31.7076C19.5007 31.4146 19.8981 31.25 20.3125 31.25H79.6875C80.1019 31.25 80.4993 31.4146 80.7924 31.7076C81.0854 32.0007 81.25 32.3981 81.25 32.8125V54.6875Z"></path>
<path fill="white" d="M50 93.75C50.9271 93.75 51.8334 93.4751 52.6042 92.96C53.3751 92.4449 53.9759 91.7129 54.3307 90.8563C54.6855 89.9998 54.7783 89.0573 54.5974 88.148C54.4166 87.2387 53.9701 86.4035 53.3146 85.7479C52.659 85.0924 51.8238 84.6459 50.9145 84.4651C50.0052 84.2842 49.0627 84.377 48.2062 84.7318C47.3496 85.0866 46.6176 85.6874 46.1025 86.4583C45.5874 87.2291 45.3125 88.1354 45.3125 89.0625C45.3137 90.3053 45.808 91.4969 46.6868 92.3757C47.5656 93.2545 48.7572 93.7488 50 93.75ZM50 87.5C50.309 87.5 50.6111 87.5916 50.8681 87.7633C51.125 87.935 51.3253 88.179 51.4436 88.4646C51.5618 88.7501 51.5928 89.0642 51.5325 89.3673C51.4722 89.6704 51.3234 89.9488 51.1049 90.1674C50.8863 90.3859 50.6079 90.5347 50.3048 90.595C50.0017 90.6553 49.6876 90.6243 49.4021 90.5061C49.1165 90.3878 48.8725 90.1875 48.7008 89.9306C48.5291 89.6736 48.4375 89.3715 48.4375 89.0625C48.4375 88.6481 48.6021 88.2507 48.8951 87.9576C49.1882 87.6646 49.5856 87.5 50 87.5ZM62.5 90.625H68.75C69.1644 90.625 69.5618 90.4604 69.8549 90.1674C70.1479 89.8743 70.3125 89.4769 70.3125 89.0625C70.3125 88.6481 70.1479 88.2507 69.8549 87.9576C69.5618 87.6646 69.1644 87.5 68.75 87.5H62.5C62.0856 87.5 61.6882 87.6646 61.3951 87.9576C61.1021 88.2507 60.9375 88.6481 60.9375 89.0625C60.9375 89.4769 61.1021 89.8743 61.3951 90.1674C61.6882 90.4604 62.0856 90.625 62.5 90.625ZM31.25 90.625H37.5C37.9144 90.625 38.3118 90.4604 38.6049 90.1674C38.8979 89.8743 39.0625 89.4769 39.0625 89.0625C39.0625 88.6481 38.8979 88.2507 38.6049 87.9576C38.3118 87.6646 37.9144 87.5 37.5 87.5H31.25C30.8356 87.5 30.4382 87.6646 30.1451 87.9576C29.8521 88.2507 29.6875 88.6481 29.6875 89.0625C29.6875 89.4769 29.8521 89.8743 30.1451 90.1674C30.4382 90.4604 30.8356 90.625 31.25 90.625ZM56.25 7.8125H43.75C43.3356 7.8125 42.9382 7.97712 42.6451 8.27015C42.3521 8.56317 42.1875 8.9606 42.1875 9.375C42.1875 9.7894 42.3521 10.1868 42.6451 10.4799C42.9382 10.7729 43.3356 10.9375 43.75 10.9375H56.25C56.6644 10.9375 57.0618 10.7729 57.3549 10.4799C57.6479 10.1868 57.8125 9.7894 57.8125 9.375C57.8125 8.9606 57.6479 8.56317 57.3549 8.27015C57.0618 7.97712 56.6644 7.8125 56.25 7.8125Z"></path>
<path fill="white" d="M62.5 10.9375C63.3629 10.9375 64.0625 10.2379 64.0625 9.375C64.0625 8.51206 63.3629 7.8125 62.5 7.8125C61.6371 7.8125 60.9375 8.51206 60.9375 9.375C60.9375 10.2379 61.6371 10.9375 62.5 10.9375Z"></path>
<path fill="white" d="M35.7422 34.375H28.125C27.7106 34.375 27.3132 34.5396 27.0201 34.8326C26.7271 35.1257 26.5625 35.5231 26.5625 35.9375V51.5625C26.5625 51.9769 26.7271 52.3743 27.0201 52.6674C27.3132 52.9604 27.7106 53.125 28.125 53.125C28.5394 53.125 28.9368 52.9604 29.2299 52.6674C29.5229 52.3743 29.6875 51.9769 29.6875 51.5625V47.2656H35.7422C37.4516 47.2656 39.091 46.5866 40.2997 45.3778C41.5084 44.1691 42.1875 42.5297 42.1875 40.8203C42.1875 39.1109 41.5084 37.4715 40.2997 36.2628C39.091 35.0541 37.4516 34.375 35.7422 34.375ZM35.7422 44.1406H29.6875V37.5H35.7422C36.6228 37.5 37.4673 37.8498 38.09 38.4725C38.7127 39.0952 39.0625 39.9397 39.0625 40.8203C39.0625 41.7009 38.7127 42.5454 38.09 43.1681C37.4673 43.7908 36.6228 44.1406 35.7422 44.1406ZM72.85 34.7187C72.5267 34.4599 72.1139 34.3401 71.7022 34.3855C71.2906 34.4309 70.9138 34.6379 70.6547 34.9609L65.625 41.25L60.5937 34.9625C60.3349 34.6392 59.9582 34.4319 59.5465 34.3862C59.1349 34.3405 58.7219 34.4601 58.3984 34.7187C58.0751 34.9776 57.8679 35.3543 57.8222 35.766C57.7765 36.1776 57.8961 36.5906 58.1547 36.9141L64.0625 44.3V51.5625C64.0625 51.9769 64.2271 52.3743 64.5201 52.6674C64.8132 52.9604 65.2106 53.125 65.625 53.125C66.0394 53.125 66.4368 52.9604 66.7299 52.6674C67.0229 52.3743 67.1875 51.9769 67.1875 51.5625V44.3L73.0937 36.9141C73.222 36.7538 73.3175 36.5699 73.3747 36.3728C73.4319 36.1756 73.4497 35.9691 73.4271 35.7651C73.4044 35.5611 73.3418 35.3636 73.2428 35.1837C73.1438 35.0039 73.0103 34.847 72.85 34.7187ZM51.45 35.3563C51.3338 35.0668 51.1336 34.8187 50.8752 34.644C50.6167 34.4693 50.3119 34.3759 50 34.3759C49.6881 34.3759 49.3833 34.4693 49.1248 34.644C48.8664 34.8187 48.6662 35.0668 48.55 35.3563L42.3 50.9812C42.1596 51.363 42.1736 51.7844 42.339 52.156C42.5044 52.5276 42.8082 52.82 43.1858 52.9712C43.5634 53.1223 43.985 53.1203 44.3611 52.9655C44.7373 52.8107 45.0382 52.5153 45.2 52.1422L46.3703 49.2188H53.6297L54.8 52.1422C54.9539 52.527 55.2544 52.8348 55.6354 52.998C56.0163 53.1612 56.4465 53.1665 56.8313 53.0125C57.216 52.8586 57.5239 52.5581 57.6871 52.1771C57.8503 51.7962 57.8555 51.366 57.7016 50.9812L51.45 35.3563ZM47.6203 46.0938L50 40.1437L52.3797 46.0938H47.6203Z"></path>
</svg>
