<svg xmlns="http://www.w3.org/2000/svg" fill="none" viewBox="0 0 100 100" height="100" width="100">
<path fill="white" d="M52.0967 70.4814C52.3301 72.4035 51.8153 74.1574 50.6077 75.5537C49.1792 77.2055 46.7989 78.3105 44.0917 78.615V80.6881C44.0917 81.1025 43.927 81.4999 43.634 81.7929C43.341 82.086 42.9436 82.2506 42.5292 82.2506C42.1148 82.2506 41.7173 82.086 41.4243 81.7929C41.1313 81.4999 40.9667 81.1025 40.9667 80.6881V78.5926C36.9643 78.0545 33.8514 75.5313 32.9522 71.9248C32.9026 71.7257 32.8926 71.5188 32.9229 71.3158C32.9533 71.1129 33.0233 70.9179 33.129 70.742C33.2346 70.5661 33.3739 70.4128 33.5389 70.2907C33.7038 70.1687 33.8912 70.0803 34.0903 70.0307C34.2894 69.981 34.4963 69.9711 34.6993 70.0014C34.9022 70.0317 35.0972 70.1017 35.2731 70.2074C35.449 70.3131 35.6023 70.4524 35.7244 70.6173C35.8464 70.7823 35.9348 70.9697 35.9844 71.1688C36.7885 74.3938 39.9395 75.548 42.5209 75.574C42.5346 75.5738 42.5485 75.5742 42.5622 75.5744C42.6489 75.574 42.7348 75.574 42.82 75.5719C45.078 75.5182 47.2071 74.7086 48.244 73.5094C48.8768 72.7777 49.1223 71.9104 48.9946 70.858C48.693 68.3744 46.628 66.9498 42.2989 66.2393C35.4672 65.1176 33.8768 61.658 33.7458 58.9533C33.5637 55.2051 36.1891 52.0635 40.2788 51.1359C40.5065 51.0843 40.7359 51.0408 40.9667 51.0053V48.8875C40.9667 48.4731 41.1313 48.0757 41.4243 47.7826C41.7173 47.4896 42.1148 47.325 42.5292 47.325C42.9436 47.325 43.341 47.4896 43.634 47.7826C43.927 48.0757 44.0917 48.4731 44.0917 48.8875V50.9918C47.0243 51.4164 49.9223 53.1082 51.3672 56.55C51.5242 56.9314 51.524 57.3595 51.3667 57.7408C51.2093 58.1221 50.9075 58.4256 50.5272 58.5853C50.1469 58.745 49.7189 58.7478 49.3365 58.5932C48.9541 58.4385 48.6484 58.1389 48.486 57.7598C47.3635 55.0867 44.962 54.0016 42.6446 53.9977C42.5798 54.0023 42.5148 54.0031 42.4499 54C41.946 54.0121 41.4481 54.0752 40.97 54.1836C38.9008 54.6527 36.7364 56.1125 36.867 58.802C36.9079 59.6443 37.0323 62.2078 42.8051 63.1557C44.9254 63.5037 51.3782 64.5629 52.0967 70.4814ZM89.8032 80.2941L75.1846 97.5115C74.6778 98.1086 73.9674 98.4373 73.1842 98.4373C72.4012 98.4373 71.6907 98.1084 71.1838 97.5117L65.3348 90.6229C59.3085 95.6842 51.5407 98.4375 43.2278 98.4375C43.0245 98.4375 42.8215 98.4357 42.6176 98.4326C42.4184 98.4358 42.2191 98.4374 42.0198 98.4373C29.9721 98.4379 19.0305 92.5498 13.3536 82.9705C8.2022 74.2781 8.31489 63.9072 13.6625 54.5176C17.0098 48.6404 22.1362 41.9857 29.6989 33.7125C27.5508 32.7355 26.0528 30.5707 26.0528 28.0611C26.0528 24.6889 28.7571 21.9381 32.1108 21.8588L27.1711 16.9193C24.7012 14.4494 24.7012 10.4307 27.1711 7.96094C29.2616 5.87031 32.5858 5.51328 35.0756 7.11133C35.343 7.28281 35.6047 7.30625 35.8985 7.18477C36.1917 7.06328 36.3602 6.86191 36.428 6.55117C37.0588 3.66094 39.6618 1.56289 42.6174 1.5625C45.5731 1.5625 48.1764 3.66035 48.8077 6.55078C48.8754 6.86172 49.0438 7.06328 49.3376 7.18496C49.6307 7.30645 49.8922 7.28281 50.1598 7.11133C52.6495 5.51348 55.9735 5.87031 58.0641 7.96074C60.534 10.4309 60.534 14.4498 58.0643 16.9195L53.1249 21.859C56.4784 21.9385 59.1827 24.6893 59.1827 28.0615C59.1827 30.5709 57.6846 32.7357 55.5366 33.7127C58.7227 37.1986 61.4674 40.3891 63.8295 43.3527C64.0049 41.482 65.5827 40.0127 67.4981 40.0127H78.8706C80.9032 40.0129 82.5569 41.6666 82.5567 43.699V75.9721H87.8028C88.8376 75.9721 89.7503 76.5555 90.1844 77.4945C90.6186 78.4324 90.4727 79.5055 89.8032 80.2941ZM29.3807 14.7096L36.5264 21.8549H48.7094L55.8547 14.7096C57.1061 13.458 57.1061 11.4219 55.8547 10.1705C54.7956 9.11133 53.1104 8.93066 51.8479 9.74102C50.7247 10.4617 49.3737 10.5824 48.1415 10.0717C46.909 9.56113 46.0391 8.5207 45.7545 7.21719C45.4344 5.75156 44.1151 4.6875 42.6176 4.6875C41.1202 4.6877 39.801 5.75176 39.4811 7.21738C39.1965 8.5209 38.3266 9.56133 37.094 10.0719C35.8612 10.582 34.5104 10.4615 33.3877 9.74121C32.1251 8.93066 30.4399 9.11133 29.3805 10.1705C28.1292 11.4219 28.1292 13.4582 29.3807 14.7096ZM29.1778 28.0611C29.1778 29.7602 30.56 31.1424 32.259 31.1424H52.9762C54.6752 31.1424 56.0575 29.7602 56.0575 28.0613C56.0575 26.3623 54.6752 24.9801 52.9762 24.9801H32.259C30.56 24.9799 29.1778 26.3621 29.1778 28.0611ZM63.3126 88.241L56.5655 80.2943C55.8958 79.5051 55.7501 78.432 56.1844 77.4934C56.6186 76.5549 57.5311 75.9715 58.5659 75.9715H63.812V48.448C60.7092 44.2736 56.7702 39.6244 51.7979 34.2676H33.4366C25.2422 43.0955 19.8127 50.0334 16.3778 56.0643C11.5309 64.5746 11.4116 73.5645 16.0417 81.3775C21.2454 90.1584 31.4211 95.4947 42.5911 95.3078C42.6086 95.3074 42.6262 95.3074 42.6438 95.3078C50.434 95.4412 57.7118 92.9393 63.3126 88.241ZM72.8036 95.4877C72.8032 95.4882 72.8028 95.4886 72.8024 95.4891L72.8036 95.4877ZM86.7208 79.0967H80.9942C80.5798 79.0967 80.1824 78.9321 79.8893 78.639C79.5963 78.346 79.4317 77.9486 79.4317 77.5342V43.6984C79.4317 43.3941 79.1749 43.1373 78.8706 43.1373H67.4981C67.194 43.1373 66.937 43.3943 66.937 43.6986V77.534C66.937 77.9484 66.7724 78.3458 66.4793 78.6388C66.1863 78.9319 65.7889 79.0965 65.3745 79.0965H59.6479L73.1844 95.0395L86.7208 79.0967Z"></path>
</svg>
