<svg xmlns="http://www.w3.org/2000/svg" fill="none" viewBox="0 0 100 100" height="100" width="100">
<g clip-path="url(#clip0_193_15)">
<path fill="white" d="M85.1232 31.369L80.4281 25.6728C79.785 24.8949 79.3903 23.9418 79.2953 22.937L78.5872 15.589C78.2195 11.7714 75.1814 8.73336 71.3636 8.36559L64.0158 7.65837C63.0111 7.56263 62.0582 7.16807 61.2799 6.52556L55.5838 1.82929C52.6245 -0.609763 48.3284 -0.609763 45.369 1.82929L39.6726 6.52536C38.8945 7.16809 37.9415 7.5627 36.9368 7.65817L29.5888 8.36559C25.7714 8.73336 22.7343 11.7714 22.3656 15.589L21.6584 22.9368C21.5626 23.9415 21.1681 24.8945 20.5256 25.6728L15.8293 31.369C13.3902 34.3286 13.3902 38.6247 15.8293 41.584L20.5252 47.2801C21.1677 48.0584 21.5622 49.0113 21.658 50.016L22.3654 57.3638C22.7332 61.1816 25.7712 64.2189 29.5888 64.5874L34.0804 65.0199L23.4091 90.5196C23.267 90.8567 23.2235 91.2274 23.2839 91.5883C23.3443 91.9492 23.506 92.2855 23.7502 92.558C24.2498 93.1205 25.0089 93.3432 25.7306 93.1381L34.989 90.5241C35.0073 90.5185 35.0269 90.5193 35.0447 90.5264C35.0624 90.5335 35.0772 90.5465 35.0866 90.5631L39.7229 98.9936C39.889 99.299 40.1346 99.5538 40.4338 99.731C40.733 99.9081 41.0745 100.001 41.4222 99.9998C41.4556 99.9998 41.4892 99.999 41.5235 99.9975C42.2735 99.9594 42.922 99.5062 43.2188 98.8074L54.485 71.8833C54.8721 71.6612 55.2399 71.407 55.5846 71.1235L61.2805 66.4283C61.9977 65.8367 62.8645 65.4552 63.7852 65.3259L73.9894 89.7086L66.7683 87.67C66.1053 87.4807 65.3977 87.5225 64.7616 87.7886C64.1255 88.0546 63.5988 88.5291 63.268 89.134L59.6524 95.7082L54.862 84.2604C54.7101 83.8975 54.4202 83.6098 54.0562 83.4606C53.6922 83.3114 53.2839 83.3128 52.9209 83.4647C52.7413 83.5398 52.5783 83.6496 52.4411 83.7878C52.3039 83.926 52.1953 84.0899 52.1215 84.27C52.0477 84.4502 52.0101 84.6431 52.0109 84.8378C52.0116 85.0325 52.0508 85.2252 52.126 85.4047L57.7373 98.8148C57.8787 99.1519 58.1127 99.4419 58.4123 99.6512C58.7118 99.8606 59.0646 99.9806 59.4297 99.9975C59.4639 99.999 59.4975 100.001 59.5313 100.001C59.8789 100.002 60.2204 99.9085 60.5195 99.7312C60.8186 99.554 61.0641 99.2991 61.2301 98.9936L65.8658 90.5645C65.8753 90.5478 65.89 90.5348 65.9077 90.5275C65.9254 90.5202 65.945 90.5189 65.9635 90.5241L75.2201 93.1379C75.5715 93.239 75.9444 93.2382 76.2953 93.1355C76.6463 93.0329 76.9608 92.8326 77.2023 92.558C77.7019 91.9951 77.8324 91.2147 77.5425 90.518L66.8721 65.0191L71.3634 64.5867C75.1812 64.2189 78.2193 61.1816 78.5871 57.364L79.2951 50.0152C79.3912 49.0074 79.7833 48.0621 80.4279 47.2801L85.1232 41.584C87.563 38.6247 87.563 34.3284 85.1232 31.369ZM41.3011 95.708L37.6847 89.1323C37.3537 88.5275 36.8269 88.0532 36.1908 87.7875C35.5547 87.5217 34.8471 87.4802 34.1843 87.6698L26.9638 89.7077L37.1673 65.3257C38.088 65.4549 38.9551 65.8361 39.6728 66.4273L45.3688 71.1232C46.8491 72.3431 48.6626 72.9528 50.4768 72.9528C50.5934 72.9528 50.7094 72.9497 50.8262 72.9444L41.3011 95.708ZM82.8353 39.6979L78.14 45.394C77.1203 46.6273 76.4942 48.1382 76.3425 49.7312L75.6355 57.0791C75.4035 59.4869 73.4877 61.4027 71.0799 61.6345L64.6254 62.2564C64.6002 62.258 64.5742 62.2603 64.5492 62.264L63.732 62.3425C62.1388 62.4941 60.6277 63.12 59.394 64.1394L53.6979 68.8345C51.8317 70.3734 49.1217 70.3734 47.2557 68.8345L41.5595 64.1392C40.3259 63.1196 38.8148 62.4938 37.2216 62.3425L36.4005 62.2632C36.378 62.2605 36.3554 62.2584 36.3327 62.2572L29.8738 61.6345C27.4658 61.4027 25.5502 59.4869 25.3181 57.0791L24.6111 49.732C24.4596 48.1387 23.8333 46.6275 22.8134 45.394L18.1181 39.6979C16.5795 37.8309 16.5795 35.121 18.1181 33.2549L22.8134 27.5589C23.8333 26.3253 24.4594 24.8141 24.6109 23.2208L25.3183 15.873C25.5503 13.465 27.466 11.5494 29.8738 11.3173L37.2218 10.6103C38.8149 10.4587 40.326 9.83276 41.5597 8.81344L47.2559 4.11815C48.1889 3.34921 49.3333 2.96386 50.477 2.96386C51.6208 2.96386 52.7651 3.34862 53.6981 4.11815L59.3942 8.81344C60.6277 9.83306 62.1388 10.459 63.732 10.6103L71.0801 11.3173C73.4879 11.5494 75.4037 13.465 75.6355 15.873L76.3427 23.2206C76.4942 24.814 77.1203 26.3253 78.1402 27.5589L82.8355 33.2549C84.3734 35.1217 84.3734 37.8311 82.8355 39.6979H82.8353Z"></path>
<path fill="white" d="M50.4768 13.3115C49.4865 13.3115 48.49 13.374 47.5135 13.4992C47.1235 13.5492 46.7693 13.752 46.5288 14.063C46.2883 14.374 46.1811 14.7678 46.2309 15.1578C46.3348 15.9703 47.0785 16.5441 47.8897 16.441C48.741 16.332 49.6115 16.277 50.4768 16.277C61.6148 16.277 70.6764 25.3385 70.6764 36.4768C70.6764 47.6148 61.6141 56.6756 50.4768 56.6756C39.3385 56.6756 30.2771 47.6141 30.2771 36.476C30.2771 28.5314 34.9615 21.2949 42.2109 18.0395C42.3886 17.9597 42.5488 17.8458 42.6825 17.7042C42.8161 17.5625 42.9205 17.3959 42.9897 17.2139C43.059 17.0319 43.0917 16.838 43.086 16.6434C43.0802 16.4487 43.0362 16.2571 42.9564 16.0795C42.8767 15.9018 42.7628 15.7416 42.6211 15.608C42.4795 15.4744 42.3129 15.37 42.1309 15.3008C41.9489 15.2316 41.755 15.1989 41.5604 15.2046C41.3657 15.2104 41.1741 15.2544 40.9965 15.3342C32.6826 19.0672 27.3115 27.3656 27.3115 36.476C27.3115 49.2498 37.7035 59.641 50.4768 59.641C63.2498 59.641 73.6418 49.2498 73.6418 36.476C73.6418 23.7027 63.2498 13.3115 50.4768 13.3115Z"></path>
<path fill="white" d="M35.7497 34.7585C33.9819 36.5261 33.9819 39.4032 35.7497 41.171L42.2262 47.6483C42.6464 48.0705 43.1462 48.4053 43.6965 48.6331C44.2469 48.861 44.837 48.9775 45.4327 48.9759C46.0284 48.9775 46.6185 48.8609 47.1689 48.6331C47.7193 48.4052 48.219 48.0705 48.6393 47.6483L62.7774 33.5097C64.5452 31.7411 64.5452 28.8647 62.7774 27.0962C61.0098 25.3286 58.1327 25.3286 56.3641 27.0962L45.4327 38.0284L42.162 34.7585C40.3944 32.9909 37.5176 32.9909 35.7497 34.7585ZM45.4329 41.6089C45.6276 41.6088 45.8204 41.5704 46.0002 41.4958C46.1801 41.4212 46.3435 41.3119 46.4811 41.1741L58.4616 29.1937C59.0733 28.5817 60.0682 28.5823 60.6801 29.1937C61.292 29.8054 61.292 30.8011 60.6801 31.4122L46.542 45.5509C46.3967 45.697 46.2238 45.8128 46.0333 45.8916C45.8429 45.9705 45.6388 46.0108 45.4327 46.0103C45.2266 46.0109 45.0224 45.9706 44.832 45.8918C44.6415 45.813 44.4686 45.6972 44.3233 45.5511L37.8461 39.0745C37.2348 38.4626 37.2348 37.4669 37.8461 36.8558C37.9918 36.7099 38.1649 36.5943 38.3553 36.5155C38.5458 36.4367 38.75 36.3963 38.9561 36.3966C39.162 36.3963 39.3658 36.4366 39.5561 36.5153C39.7463 36.594 39.9192 36.7094 40.0647 36.855L44.3836 41.1739C44.5213 41.3118 44.6849 41.4212 44.8649 41.4958C45.0449 41.5704 45.2378 41.6089 45.4327 41.6089H45.4329Z"></path>
</g>
<defs>
<clipPath id="clip0_193_15">
<rect fill="white" height="100" width="100"></rect>
</clipPath>
</defs>
</svg>
