<svg xmlns="http://www.w3.org/2000/svg" fill="none" viewBox="0 0 100 100" height="100" width="100">
<g clip-path="url(#clip0_194_26)">
<path fill="white" d="M31.5181 45.0982C28.8801 42.4602 27.5621 39.0042 27.5621 35.5462C27.5621 32.0902 28.8801 28.6322 31.5181 25.9942C31.8195 25.6939 32.1345 25.4076 32.4621 25.1362C35.1401 22.9142 38.4521 21.9002 41.7081 22.0582C44.9221 22.2122 48.0781 23.5062 50.5181 25.8942C52.9246 23.9349 55.9308 22.861 59.0341 22.8522C62.4961 22.8402 65.9561 24.1522 68.6081 26.8042C71.2461 29.4422 72.5641 32.8982 72.5641 36.3562C72.5641 39.8122 71.2461 43.2702 68.6081 45.9082L51.4321 63.0842C51.3057 63.2107 51.1555 63.3111 50.9903 63.3795C50.8251 63.448 50.648 63.4832 50.4691 63.4832C50.2902 63.4832 50.1131 63.448 49.9479 63.3795C49.7827 63.3111 49.6325 63.2107 49.5061 63.0842L31.5181 45.0982ZM30.2861 35.5462C30.2861 38.3062 31.3381 41.0662 33.4441 43.1722L50.4681 60.1962L66.6821 43.9822C68.7881 41.8762 69.8401 39.1162 69.8401 36.3562C69.8401 33.5962 68.7881 30.8362 66.6821 28.7302C64.5581 26.6062 61.7941 25.5562 59.0341 25.5642C56.2761 25.5742 53.5161 26.6462 51.3941 28.7682L51.3921 28.7662C51.3621 28.7962 51.3301 28.8242 51.2981 28.8522C51.0199 29.0819 50.6621 29.192 50.3029 29.1582C49.9437 29.1245 49.6126 28.9497 49.3821 28.6722C49.1645 28.4098 48.9343 28.1582 48.6921 27.9182C46.7964 26.0195 44.2602 24.8969 41.5801 24.7702C38.9821 24.6442 36.3381 25.4542 34.1961 27.2322C33.9346 27.4494 33.6837 27.679 33.4441 27.9202C31.3381 30.0262 30.2861 32.7862 30.2861 35.5462ZM48.9821 1.39423C48.9821 0.642227 49.5921 0.0322266 50.3441 0.0322266C51.0961 0.0322266 51.7061 0.642227 51.7061 1.39423V9.26423C51.7061 10.0162 51.0961 10.6262 50.3441 10.6262C49.5921 10.6262 48.9821 10.0162 48.9821 9.26423V1.39423ZM97.8981 52.2642C98.2577 52.2642 98.6026 52.4071 98.8569 52.6614C99.1112 52.9157 99.2541 53.2606 99.2541 53.6202C99.2541 53.9799 99.1112 54.3248 98.8569 54.5791C98.6026 54.8334 98.2577 54.9762 97.8981 54.9762H89.2001C88.8405 54.9762 88.4956 54.8334 88.2413 54.5791C87.987 54.3248 87.8441 53.9799 87.8441 53.6202C87.8441 53.2606 87.987 52.9157 88.2413 52.6614C88.4956 52.4071 88.8405 52.2642 89.2001 52.2642H97.8981ZM93.4701 26.1522C94.1161 25.7742 94.9481 25.9902 95.3261 26.6362C95.7061 27.2822 95.4881 28.1142 94.8421 28.4922L88.2441 32.3622C87.5981 32.7402 86.7661 32.5242 86.3881 31.8782C86.0101 31.2322 86.2261 30.4002 86.8721 30.0222L93.4701 26.1522ZM74.4121 7.48423C74.7821 6.83223 75.6121 6.60423 76.2641 6.97423C76.9161 7.34423 77.1441 8.17423 76.7741 8.82623L73.0881 15.3362C72.7181 15.9882 71.8881 16.2162 71.2361 15.8462C70.5841 15.4762 70.3561 14.6462 70.7261 13.9942L74.4121 7.48423ZM2.10809 53.7342C1.35609 53.7342 0.746094 53.1242 0.746094 52.3722C0.746094 51.6202 1.35609 51.0102 2.10809 51.0102H10.3981C11.1501 51.0102 11.7601 51.6202 11.7601 52.3722C11.7601 53.1242 11.1501 53.7342 10.3981 53.7342H2.10809ZM6.00809 27.8682C5.85434 27.7782 5.71984 27.6588 5.61228 27.5168C5.50472 27.3748 5.42622 27.213 5.38127 27.0406C5.33632 26.8682 5.32579 26.6886 5.3503 26.5122C5.37481 26.3357 5.43386 26.1658 5.52409 26.0122C5.61408 25.8585 5.7335 25.724 5.87551 25.6164C6.01753 25.5089 6.17936 25.4304 6.35174 25.3854C6.52413 25.3404 6.70368 25.3299 6.88014 25.3544C7.05659 25.3789 7.22649 25.438 7.38009 25.5282L14.3561 29.6202C15.0021 30.0002 15.2201 30.8302 14.8401 31.4762C14.7501 31.63 14.6307 31.7645 14.4887 31.872C14.3467 31.9796 14.1848 32.0581 14.0124 32.103C13.8401 32.148 13.6605 32.1585 13.4841 32.134C13.3076 32.1095 13.1377 32.0505 12.9841 31.9602L6.00809 27.8682ZM23.9681 8.62023C23.5981 7.96823 23.8261 7.13823 24.4781 6.76823C25.1301 6.39823 25.9601 6.62623 26.3301 7.27823L29.6941 13.2222C30.0641 13.8742 29.8361 14.7042 29.1841 15.0742C28.5321 15.4442 27.7021 15.2162 27.3321 14.5642L23.9681 8.62023ZM13.4401 76.6382L18.0561 74.5442C19.4261 73.9882 20.8981 74.4102 21.7061 75.6522L21.7741 75.5982C22.2821 75.1982 22.8081 74.7702 23.3601 74.3122C31.3941 67.6062 34.9301 67.9622 47.8601 69.2602L48.5201 69.3262C50.7741 69.5522 52.1581 70.5702 52.7741 71.8622C53.0921 72.5282 53.2001 73.2462 53.1161 73.9582L53.1121 73.9862L57.4201 71.8802C59.1221 71.0482 60.9001 70.8722 62.4361 71.1222C63.7661 71.3382 64.9381 71.8862 65.7641 72.6222L67.2841 71.8802C68.8281 71.1262 70.4361 70.9102 71.8701 71.0622C72.9201 71.1742 73.8861 71.4862 74.6741 71.9342C75.4821 72.3922 76.1221 73.0022 76.5081 73.7002C78.6581 73.1222 80.6741 73.3722 82.0441 74.0802C82.7161 74.4262 83.2581 74.8922 83.6281 75.4402C84.0501 76.0682 84.2421 76.7822 84.1481 77.5422C84.0061 78.6902 83.1981 79.8782 81.5001 80.8882L69.2681 88.1702C68.6461 88.5402 64.6101 90.0322 60.5421 91.3982C57.4081 92.4502 54.2061 93.4502 52.4781 93.8342C52.4001 93.8522 52.3221 93.8622 52.2441 93.8642L50.8881 93.9242C49.4661 93.9862 47.7601 94.0542 44.3101 94.1962C38.0081 94.4542 30.4841 94.7582 29.4061 94.8022C29.4281 95.2462 29.3481 95.6802 29.1801 96.0802C28.8921 96.7662 28.3421 97.3502 27.6121 97.6822L23.5901 99.5082C21.8381 100.304 19.9181 100.218 19.0461 98.0642L12.0941 81.0462C11.6961 80.0722 11.3961 79.3742 11.8721 78.2422C12.1601 77.5542 12.7101 76.9702 13.4401 76.6382ZM22.8121 78.2342L28.5041 92.1682C28.7701 92.1262 29.0241 92.1002 29.2641 92.0902C30.2181 92.0522 37.8341 91.7442 44.2001 91.4822C47.4701 91.3482 50.4321 91.2262 52.0081 91.1562C53.6501 90.7782 56.6801 89.8282 59.6781 88.8222C63.6101 87.5022 67.4081 86.1222 67.8841 85.8382L80.1161 78.5562C80.9981 78.0302 81.4001 77.5702 81.4441 77.2102C81.4541 77.1222 81.4281 77.0342 81.3721 76.9482C81.2621 76.7862 81.0661 76.6302 80.7981 76.4922C79.7921 75.9742 78.1381 75.8862 76.3461 76.6182C71.5741 78.5662 66.8001 80.5142 62.0281 82.4622C61.1621 82.8182 58.5401 82.7622 57.4721 82.7302L57.3701 82.7282C56.1561 82.6922 54.9481 82.6262 53.9981 82.5482C52.9621 82.4662 52.1181 82.3622 51.7261 82.2582L36.7321 78.2682V78.2662C36.4371 78.1882 36.1769 78.0133 35.9933 77.7695C35.8098 77.5257 35.7135 77.2273 35.7201 76.9222C35.7381 76.1722 36.3601 75.5802 37.1081 75.5982L46.7261 75.8262C48.3901 75.8662 49.5581 75.2242 50.1061 74.4082C50.2761 74.1562 50.3801 73.8902 50.4101 73.6342C50.4361 73.4142 50.4101 73.2062 50.3241 73.0282C50.0901 72.5402 49.4301 72.1422 48.2501 72.0242L47.5901 71.9582C35.5521 70.7502 32.2581 70.4182 25.1001 76.3922C24.5101 76.8862 23.9621 77.3302 23.4501 77.7322C23.2381 77.9082 23.0241 78.0742 22.8121 78.2342ZM18.8081 77.1882L14.5581 79.1182C14.3401 79.2162 14.3421 79.3802 14.4141 79.5562L21.5541 97.0402C21.6941 97.3122 21.7221 97.3702 21.9661 97.2582L25.7481 95.5422C26.9781 94.9842 26.7601 95.2402 26.3921 94.1702C24.1321 88.6342 21.8701 83.1002 19.6101 77.5642C19.3701 76.9962 19.1841 77.0182 18.8081 77.1882ZM49.3961 78.8302L51.1661 79.3022C51.5821 79.2122 51.9821 79.1102 52.3341 79.0122C52.8761 78.8602 53.2741 78.7262 53.3881 78.6702L62.8921 74.0282C62.6241 73.9322 62.3281 73.8562 62.0101 73.8062C60.9781 73.6382 59.7761 73.7622 58.6121 74.3302L49.3961 78.8302ZM61.0061 79.9442L73.8721 74.6922C73.7301 74.5522 73.5461 74.4182 73.3321 74.2962C72.8581 74.0262 72.2561 73.8362 71.5801 73.7642C70.6181 73.6622 69.5301 73.8102 68.4741 74.3262L56.8661 79.9962C57.8781 80.0362 59.7141 80.1402 60.7541 79.9942C60.8381 79.9862 60.9281 79.9742 61.0061 79.9442Z" clip-rule="evenodd" fill-rule="evenodd"></path>
</g>
<defs>
<clipPath id="clip0_194_26">
<rect fill="white" height="100" width="100"></rect>
</clipPath>
</defs>
</svg>
