<svg xmlns="http://www.w3.org/2000/svg" fill="none" viewBox="0 0 100 100" height="100" width="100">
<path fill="url(#paint0_linear_197_3)" d="M50.6832 7.01777L54.092 15.9961C54.1946 16.266 54.433 16.4393 54.7213 16.4533L64.3135 16.9209C64.9659 16.9525 65.233 17.7744 64.7239 18.1836L57.2383 24.2C57.0133 24.3809 56.9223 24.6613 56.9979 24.9398L59.5174 34.207C59.6887 34.8373 58.9899 35.3451 58.4432 34.9875L50.408 29.7277C50.1664 29.5697 49.8717 29.5697 49.6303 29.7277L41.5953 34.9875C41.0489 35.3453 40.3498 34.8375 40.5211 34.2072L43.0407 24.9398C43.1162 24.6613 43.0252 24.3809 42.8002 24.2L35.3147 18.1836C34.8057 17.7744 35.0727 16.9525 35.725 16.9209L45.3172 16.4533C45.6055 16.4393 45.8442 16.266 45.9465 15.9961L49.3553 7.01777C49.5858 6.41074 50.4528 6.41074 50.6832 7.01777ZM87.3403 64.2602C85.4635 64.2602 83.8619 65.4367 83.2319 67.0922H69.6078C69.1934 67.0922 68.796 67.2568 68.503 67.5498C68.21 67.8429 68.0453 68.2403 68.0453 68.6547C68.0453 69.0691 68.21 69.4665 68.503 69.7595C68.796 70.0526 69.1934 70.2172 69.6078 70.2172H83.2319C83.8619 71.8727 85.4635 73.0492 87.3403 73.0492C89.7672 73.0492 91.7348 71.0818 91.7348 68.6547C91.7348 66.2275 89.7672 64.2602 87.3403 64.2602ZM12.6987 64.2602C14.5754 64.2602 16.177 65.4367 16.8071 67.0922H30.4313C30.8457 67.0922 31.2431 67.2568 31.5361 67.5498C31.8292 67.8429 31.9938 68.2403 31.9938 68.6547C31.9938 69.0691 31.8292 69.4665 31.5361 69.7595C31.2431 70.0526 30.8457 70.2172 30.4313 70.2172H16.8071C16.1772 71.8727 14.5754 73.0492 12.6987 73.0492C10.2717 73.0492 8.30413 71.0818 8.30413 68.6547C8.30413 66.2275 10.2717 64.2602 12.6987 64.2602ZM48.0381 68.6547H52L56.8049 83.7623L50.019 91.4242L43.233 83.7623L48.0381 68.6547ZM50.0194 38.6191C57.7741 38.6191 64.0606 44.9057 64.0606 52.6604C64.0606 60.415 57.7741 66.7016 50.0194 66.7016C42.2647 66.7016 35.9782 60.415 35.9782 52.6604C35.9782 44.9057 42.2647 38.6191 50.0194 38.6191ZM24.6748 93.4375H47.628L39.7176 84.5059L44.5901 69.1863C33.5696 71.3709 24.8957 80.0758 22.7573 91.1129C22.7012 91.3958 22.7087 91.6876 22.7792 91.9672C22.8497 92.2468 22.9815 92.5073 23.165 92.7297C23.3485 92.9522 23.5792 93.1311 23.8403 93.2535C24.1014 93.3759 24.3865 93.4387 24.6748 93.4375ZM52.4106 93.4375L60.3209 84.5059L55.4487 69.1863C66.469 71.3709 75.1428 80.0758 77.2815 91.1127C77.3375 91.3956 77.33 91.6874 77.2594 91.967C77.1889 92.2467 77.0571 92.5071 76.8736 92.7296C76.69 92.9521 76.4594 93.131 76.1983 93.2534C75.9371 93.3758 75.6521 93.4387 75.3637 93.4375H52.4106ZM94.0532 25.5871L90.1149 34.3461C90.0565 34.4718 90.0369 34.612 90.0586 34.7488C90.0803 34.8857 90.1422 35.013 90.2366 35.1145L96.6887 42.2277C97.1276 42.7115 96.7352 43.4814 96.086 43.4107L86.5387 42.3721C86.4012 42.3554 86.2618 42.3801 86.1384 42.443C86.0149 42.5059 85.9131 42.6041 85.8457 42.7252L81.0744 51.0596C80.75 51.6264 79.8965 51.4914 79.7631 50.852L77.8008 41.451C77.7742 41.315 77.7076 41.1901 77.6097 41.0921C77.5117 40.9941 77.3868 40.9276 77.2508 40.901L67.8498 38.9387C67.2106 38.8051 67.0752 37.9518 67.642 37.6273L75.9764 32.8559C76.0974 32.7885 76.1957 32.6866 76.2586 32.5632C76.3214 32.4398 76.3462 32.3004 76.3295 32.1629L75.2907 22.6156C75.22 21.9664 75.9901 21.574 76.4737 22.0129L83.5869 28.465C83.6884 28.5594 83.8157 28.6213 83.9526 28.643C84.0894 28.6647 84.2296 28.6451 84.3553 28.5867L93.1143 24.6484C93.7065 24.3818 94.3194 24.9949 94.0532 25.5871ZM6.88538 24.5545L15.6444 28.4926C15.77 28.5509 15.9102 28.5705 16.0471 28.5489C16.1839 28.5272 16.3112 28.4652 16.4127 28.3709L23.526 21.9188C24.0098 21.4799 24.7797 21.8723 24.709 22.5215L23.6703 32.0687C23.6537 32.2063 23.6783 32.3456 23.7412 32.4691C23.8041 32.5925 23.9024 32.6944 24.0235 32.7617L32.3578 37.533C32.9246 37.8574 32.7897 38.7109 32.1502 38.8443L22.7492 40.8068C22.6133 40.8335 22.4883 40.9 22.3904 40.998C22.2924 41.0959 22.2259 41.2209 22.1993 41.3568L20.2369 50.7578C20.1035 51.3971 19.25 51.5324 18.9256 50.9656L14.1541 42.6311C14.0868 42.51 13.9849 42.4118 13.8615 42.3489C13.738 42.286 13.5987 42.2613 13.4612 42.2779L3.9139 43.3168C3.26448 43.3875 2.8723 42.6176 3.31116 42.1338L9.76331 35.0205C9.95726 34.8068 10.0034 34.5154 9.88499 34.2521L5.94671 25.4932C5.6803 24.9012 6.2932 24.2881 6.88538 24.5545Z" clip-rule="evenodd" fill-rule="evenodd"></path>
<defs>
<linearGradient gradientUnits="userSpaceOnUse" y2="93.4375" x2="49.9999" y1="6.5625" x1="49.9999" id="paint0_linear_197_3">
<stop stop-color="#804343"></stop>
<stop stop-color="#583131" offset="1"></stop>
</linearGradient>
</defs>
</svg>
