<svg xmlns="http://www.w3.org/2000/svg" fill="none" viewBox="0 0 100 100" height="100" width="100">
<path fill="url(#paint0_linear_197_13)" d="M87.6813 83.4875H86.2833V82.0896C86.2833 80.9773 85.8415 79.9106 85.055 79.1242C84.2685 78.3377 83.2018 77.8958 82.0896 77.8958H76.4979C73.4717 75.7342 71.0051 72.8816 69.3031 69.5749C67.6012 66.2682 66.713 62.6031 66.7125 58.8842V55.5292C66.7131 53.8536 66.3364 52.1995 65.6104 50.6894C64.8844 49.1793 63.8277 47.8521 62.5188 46.8062V42.9479C62.5188 41.8357 62.0769 40.769 61.2904 39.9825C60.5039 39.196 59.4373 38.7542 58.325 38.7542V35.9583C58.325 35.2168 58.0304 34.5057 57.5061 33.9814C56.9818 33.4571 56.2707 33.1625 55.5292 33.1625L49.9375 8L44.3458 33.1625C43.6043 33.1625 42.8932 33.4571 42.3689 33.9814C41.8446 34.5057 41.55 35.2168 41.55 35.9583V38.7542C40.4377 38.7542 39.3711 39.196 38.5846 39.9825C37.7981 40.769 37.3563 41.8357 37.3563 42.9479V46.8062C36.0473 47.8521 34.9906 49.1793 34.2646 50.6894C33.5386 52.1995 33.1619 53.8536 33.1625 55.5292V58.8842C33.162 62.6031 32.2738 66.2682 30.5719 69.5749C28.8699 72.8816 26.4033 75.7342 23.3771 77.8958H17.7854C16.6732 77.8958 15.6065 78.3377 14.82 79.1242C14.0335 79.9106 13.5917 80.9773 13.5917 82.0896V83.4875H12.1938C11.0815 83.4875 10.0148 83.9293 9.22832 84.7158C8.44184 85.5023 8 86.569 8 87.6813V91.875H91.875V87.6813C91.875 86.569 91.4332 85.5023 90.6467 84.7158C89.8602 83.9293 88.7935 83.4875 87.6813 83.4875ZM54.1313 77.8958H45.7438V68.2083C45.7441 66.3554 46.4803 64.5784 47.7903 63.268L49.9375 61.1208L52.0847 63.268C53.3951 64.5788 54.1312 66.3563 54.1313 68.2097V77.8958ZM59.7229 77.8958H56.9271V67.3905C56.9296 66.4724 56.75 65.5629 56.3987 64.7147C56.0474 63.8665 55.5314 63.0963 54.8805 62.4489L49.9375 57.5058L44.9945 62.4489C44.3436 63.0963 43.8276 63.8665 43.4763 64.7147C43.125 65.5629 42.9454 66.4724 42.9479 67.3905V77.8958H40.1521V67.3905C40.1487 66.1051 40.4002 64.8319 40.8921 63.6443C41.384 62.4568 42.1065 61.3786 43.0178 60.4722L48.9492 54.5408C49.2113 54.2788 49.5668 54.1315 49.9375 54.1315C50.3082 54.1315 50.6637 54.2788 50.9258 54.5408L56.8572 60.4722C57.7685 61.3786 58.491 62.4568 58.9829 63.6443C59.4748 64.8319 59.7263 66.1051 59.7229 67.3905V77.8958ZM87.6813 27.5708C88.7935 27.5708 89.8602 27.129 90.6467 26.3425C91.4332 25.556 91.875 24.4893 91.875 23.3771C91.875 22.2648 91.4332 21.1981 90.6467 20.4117C89.8602 19.6252 88.7935 19.1833 87.6813 19.1833C87.1945 19.1877 86.7123 19.2776 86.2568 19.4489C86.2568 19.3581 86.2833 19.2742 86.2833 19.1833C86.2833 17.7003 85.6942 16.2781 84.6456 15.2294C83.5969 14.1808 82.1747 13.5917 80.6917 13.5917C79.2087 13.5917 77.7864 14.1808 76.7378 15.2294C75.6891 16.2781 75.1 17.7003 75.1 19.1833C75.1 19.2742 75.1224 19.3581 75.1266 19.4489C74.671 19.2776 74.1888 19.1877 73.7021 19.1833C72.5898 19.1833 71.5231 19.6252 70.7367 20.4117C69.9502 21.1981 69.5083 22.2648 69.5083 23.3771C69.5083 24.4893 69.9502 25.556 70.7367 26.3425C71.5231 27.129 72.5898 27.5708 73.7021 27.5708H87.6813ZM26.1729 35.9583C27.2852 35.9583 28.3519 35.5165 29.1383 34.73C29.9248 33.9435 30.3667 32.8768 30.3667 31.7646C30.3667 30.6523 29.9248 29.5856 29.1383 28.7992C28.3519 28.0127 27.2852 27.5708 26.1729 27.5708C25.6862 27.5752 25.204 27.6651 24.7484 27.8364C24.7484 27.7456 24.775 27.6617 24.775 27.5708C24.775 26.0878 24.1859 24.6656 23.1372 23.6169C22.0886 22.5683 20.6663 21.9792 19.1833 21.9792C17.7003 21.9792 16.2781 22.5683 15.2294 23.6169C14.1808 24.6656 13.5917 26.0878 13.5917 27.5708C13.5917 27.6617 13.614 27.7456 13.6182 27.8364C13.1626 27.6651 12.6805 27.5752 12.1938 27.5708C11.0815 27.5708 10.0148 28.0127 9.22832 28.7992C8.44184 29.5856 8 30.6523 8 31.7646C8 32.8768 8.44184 33.9435 9.22832 34.73C10.0148 35.5165 11.0815 35.9583 12.1938 35.9583H26.1729Z"></path>
<defs>
<linearGradient gradientUnits="userSpaceOnUse" y2="91.875" x2="49.9375" y1="8" x1="49.9375" id="paint0_linear_197_13">
<stop stop-color="#7D4242"></stop>
<stop stop-color="#5A3232" offset="1"></stop>
</linearGradient>
</defs>
</svg>
