<svg xmlns="http://www.w3.org/2000/svg" fill="none" viewBox="0 0 100 100" height="100" width="100">
<g clip-path="url(#clip0_192_3)">
<path fill="white" d="M93.2955 2.95491C91.3462 1.00569 87.4828 -0.994108 80.1386 0.549444C75.1551 1.59612 69.1295 4.16799 62.669 7.99552C58.7199 6.69338 54.5039 5.98596 50.1246 5.98596C27.9919 5.98596 9.98565 23.9922 9.98565 46.1249C9.98565 50.4433 10.6587 54.6509 11.9876 58.6816C8.16456 65.1366 5.59504 71.1585 4.54914 76.1389C3.00637 83.4823 5.0052 87.3465 6.95461 89.2952C8.94503 91.2864 11.7366 92.2737 15.2163 92.2737C20.3632 92.2727 27.0151 90.1106 34.801 85.8428L41.1891 98.9051C41.3259 99.1843 41.5272 99.4268 41.7766 99.6126C42.0259 99.7983 42.3159 99.9218 42.6226 99.9729C42.9292 100.024 43.2437 100.001 43.5397 99.9063C43.8358 99.8115 44.105 99.6473 44.3248 99.4276L50.8776 92.8754C51.1119 92.6409 51.2828 92.3507 51.3741 92.032C51.4654 91.7133 51.4742 91.3766 51.3996 91.0536L50.291 86.2626C54.8205 86.244 59.2442 85.4813 63.4678 83.9919L65.5758 88.0331L63.3701 90.2381C62.607 91.001 62.607 92.2377 63.3701 93.0006C63.7516 93.3821 64.2512 93.5729 64.751 93.5729C65.2508 93.5729 65.7512 93.3821 66.1318 93.0006L67.4693 91.6639L70.4463 97.3723C70.5882 97.6442 70.7921 97.8788 71.0415 98.0573C71.2909 98.2358 71.5788 98.353 71.8819 98.3996C72.185 98.4462 72.4948 98.4208 72.7863 98.3255C73.0778 98.2301 73.3428 98.0675 73.5598 97.8508L79.5756 91.834C79.7791 91.6306 79.9351 91.3847 80.0325 91.1139C80.1298 90.8431 80.1661 90.5541 80.1386 90.2676L78.6242 74.3895C82.1558 70.8319 84.955 66.7075 86.9517 62.1161C89.1498 57.0609 90.2642 51.6806 90.2642 46.1249C90.2642 41.7472 89.5572 37.5312 88.2548 33.5839C96.705 19.3328 98.5521 8.21154 93.2955 2.95491ZM48.3883 58.5937L26.8169 47.3433L30.3005 43.8599L60.2641 46.7177L48.3883 58.5937ZM64.5055 42.4765H57.3315C54.0248 42.4765 51.334 39.7857 51.334 36.4785C51.334 33.9547 53.3877 31.9007 55.9115 31.9007C59.0244 31.9007 61.5565 29.3685 61.5565 26.2558C61.5565 21.8521 65.1393 18.2701 69.5422 18.2701H73.2691C77.6484 21.9146 81.1578 26.5701 83.4351 31.8748C78.248 31.7902 73.1767 33.805 69.4576 37.5252L64.5055 42.4765ZM90.5328 5.7174C94.0417 9.22618 92.4318 17.9482 86.4 28.9519C83.7763 23.4322 79.9289 18.6035 75.2109 14.8154C75.2047 14.8102 75.1986 14.8057 75.1926 14.8002C72.7615 12.8495 70.1118 11.1882 67.2969 9.84962C78.2939 3.82463 87.0349 2.21878 90.533 5.7174H90.5328ZM67.7801 14.4951C62.0557 15.3486 57.6504 20.2973 57.6504 26.2558C57.6504 27.214 56.8699 27.9937 55.9117 27.9937C51.2334 27.9937 47.4272 31.8 47.4272 36.4785C47.4256 38.3295 47.9459 40.1434 48.9285 41.7121L29.7559 39.8833C29.4693 39.8561 29.1803 39.8926 28.9094 39.9901C28.6385 40.0875 28.3925 40.2436 28.1889 40.4472L22.1731 46.4628C21.9563 46.6797 21.7936 46.9447 21.6982 47.2361C21.6027 47.5276 21.5772 47.8374 21.6237 48.1406C21.6702 48.4436 21.7873 48.7315 21.9657 48.9808C22.1442 49.2302 22.3788 49.434 22.6507 49.5757L28.3596 52.5534L27.0231 53.8909C26.2602 54.653 26.2602 55.8898 27.0231 56.6527C27.2042 56.8343 27.4195 56.9784 27.6564 57.0766C27.8934 57.1748 28.1475 57.2252 28.404 57.2249C28.6605 57.2253 28.9146 57.1749 29.1516 57.0767C29.3885 56.9785 29.6038 56.8344 29.7848 56.6527L31.9907 54.4478L36.9292 57.0235L35.661 58.2915C34.8989 59.0536 34.8981 60.2903 35.661 61.0542C35.8424 61.2356 36.0579 61.3795 36.295 61.4775C36.5321 61.5755 36.7862 61.6258 37.0428 61.6255C37.2993 61.6258 37.5532 61.5755 37.7902 61.4774C38.0271 61.3794 38.2424 61.2356 38.4237 61.0542L40.5606 58.9171L45.4922 61.4898L36.6042 70.378L28.9663 68.6233C28.6437 68.5491 28.3075 68.558 27.9894 68.6494C27.6712 68.7408 27.3815 68.9116 27.1475 69.1458L24.5284 71.7649C17.7526 64.9925 13.8921 55.7333 13.8921 46.1257C13.8921 42.8482 14.3323 39.672 15.1519 36.6507H27.96C31.4641 36.6507 34.3153 33.7998 34.3153 30.2955V30.1146C34.3153 28.7642 35.4139 27.6656 36.7643 27.6656C40.2684 27.6656 43.1196 24.8146 43.1196 21.3103V20.3475C43.1196 16.8436 40.2684 13.9924 36.7641 13.9924H33.3989C38.4061 11.3754 44.0954 9.89298 50.1256 9.89298C56.5313 9.8922 62.5523 11.5654 67.7799 14.4951H67.7801ZM27.4364 17.8984H36.7641C38.1137 17.8984 39.2131 18.9971 39.2131 20.3475V21.3103C39.2131 22.6605 38.1137 23.7592 36.7639 23.7592C33.2592 23.7592 30.4081 26.6103 30.4081 30.1146V30.2953C30.4081 31.6457 29.3094 32.7445 27.9589 32.7445H16.4542C18.7872 26.8933 22.604 21.79 27.4364 17.8984ZM9.7171 86.5331C6.21984 83.0358 7.82277 74.3007 13.8425 63.3099C15.8245 67.4923 18.4841 71.2552 21.7655 74.5274L20.5952 75.6977C20.3752 75.9178 20.2109 76.1872 20.1161 76.4835C20.0212 76.7798 19.9984 77.0945 20.0497 77.4014C20.101 77.7083 20.2249 77.9984 20.4111 78.2476C20.5973 78.4969 20.8403 78.698 21.12 78.8342L30.7827 83.5469C26.1973 85.877 21.9997 87.4149 18.4985 88.0344C15.6772 88.5342 11.8632 88.6791 9.7171 86.5331ZM43.4971 94.7307L37.8002 83.0815C37.6088 82.6909 37.2928 82.3751 36.9014 82.1842L35.934 81.712C35.9328 81.7112 35.9315 81.7107 35.9301 81.7104L25.294 76.5233L29.1456 72.672L36.7833 74.4266C37.1058 74.5009 37.442 74.4919 37.7602 74.4005C38.0783 74.3091 38.368 74.1383 38.602 73.9042L72.2203 40.2871C75.3865 37.1201 79.7826 35.5011 84.206 35.817C84.5205 40.2412 82.9029 44.6365 79.7367 47.8027L57.6633 69.8761C57.6586 69.88 57.6541 69.885 57.6496 69.889L46.1071 81.4323C45.8726 81.6666 45.7017 81.9567 45.6104 82.2753C45.5191 82.5939 45.5104 82.9305 45.5852 83.2534L47.3491 90.879L43.4971 94.7307ZM50.7129 82.3506L58.533 74.5304L61.6404 80.4874C58.1264 81.6663 54.4621 82.2919 50.7129 82.3506ZM72.6803 93.2057L61.4291 71.6347L73.3051 59.7587L76.1631 89.7223L72.6803 93.2057ZM78.123 69.1288L76.8879 56.1765L82.4984 50.5652C84.0914 48.9711 85.3922 47.1097 86.3414 45.0658C86.3511 45.4175 86.3582 45.7708 86.3582 46.1247C86.3574 54.6429 83.4589 62.6677 78.123 69.1288Z"></path>
<path fill="white" d="M48.0999 73.8764C48.3563 73.8767 48.6103 73.8264 48.8473 73.7283C49.0842 73.6303 49.2995 73.4864 49.4807 73.3049L61.4567 61.3283C62.2196 60.5662 62.2196 59.3295 61.4567 58.5666C60.6938 57.8037 59.4569 57.8035 58.694 58.5666L46.7182 70.5424C45.9559 71.3053 45.9559 72.542 46.7182 73.3049C46.8995 73.4865 47.1149 73.6304 47.352 73.7285C47.5891 73.8266 47.8433 73.8768 48.0999 73.8764ZM65.61 56.3662C66.1243 56.3662 66.6278 56.1578 66.9909 55.7939C67.3564 55.4272 67.5623 54.9309 67.5639 54.4131C67.5639 53.8994 67.3549 53.3953 66.9911 53.0322C66.624 52.6672 66.1279 52.4616 65.6102 52.46C65.0952 52.46 64.593 52.6689 64.2292 53.0322C63.8637 53.399 63.658 53.8953 63.6569 54.4131C63.6579 54.9309 63.8636 55.4273 64.2292 55.7939C64.596 56.1592 65.0923 56.3649 65.61 56.3662Z"></path>
</g>
<defs>
<clipPath id="clip0_192_3">
<rect fill="white" height="100" width="100"></rect>
</clipPath>
</defs>
</svg>
